<?xml version="1.0"?>
<svg id="b" data-name="Calque 2" xmlns="http://www.w3.org/2000/svg" width="1361" height="345.15" viewBox="0 0 1361 345.15">
  <g id="c" data-name="Calque 1">
    <g>
      <path d="M92.09,343.5c-4.92.93-9.92,1.47-14.95,1.61-1.67.05-3.34.05-5.02.01-1.39.03-2.77.03-4.15-.01-13.34-.26-26.5-3.23-38.63-8.78-9.18-4.29-19.22-6.37-29.33-6.08v-.02c10.13-.3,20.18,1.79,29.36,6.1,12.5,5.68,26.05,8.66,39.75,8.78.65.02,1.29.01,1.94,0,.36.01.72,0,1.07-.01.37.01.73.02,1.09.01.66.02,1.32.02,1.97,0,5.68-.04,11.34-.59,16.9-1.61Z" style="fill: #80C7C2;"></path>
      <g>
        <path d="M357.65,94.05c-1.82,3.28-4.61,5.93-8.39,7.94-3.76,2.01-8.44,3.02-14.02,3.02h-10.33v24.56h-16.67V61.16h27c5.45,0,10.07.94,13.83,2.82,3.78,1.89,6.6,4.48,8.49,7.8,1.87,3.31,2.82,7.11,2.82,11.4,0,3.97-.92,7.59-2.73,10.87ZM341.08,89.52c1.56-1.49,2.33-3.6,2.33-6.34s-.77-4.84-2.33-6.33c-1.56-1.49-3.94-2.24-7.11-2.24h-9.06v17.15h9.06c3.17,0,5.55-.75,7.11-2.24Z" style="fill: #1C1F3B;"></path>
        <path d="M385.72,116.7h21.82v12.87h-38.49V61.16h16.67v55.55Z" style="fill: #1C1F3B;"></path>
        <path d="M458.12,117.48h-25.54l-4.09,12.09h-17.44l24.75-68.41h19.3l24.76,68.41h-17.64l-4.11-12.09ZM453.84,104.63l-8.47-25.05-8.38,25.05h16.85Z" style="fill: #1C1F3B;"></path>
        <path d="M498.65,127.81c-3.96-1.62-7.13-4.02-9.49-7.21-2.38-3.19-3.63-7.02-3.76-11.5h17.74c.26,2.53,1.13,4.47,2.64,5.8,1.49,1.33,3.43,2,5.85,2s4.42-.57,5.85-1.71c1.43-1.13,2.13-2.71,2.13-4.72,0-1.69-.56-3.09-1.71-4.2-1.13-1.1-2.53-2.01-4.19-2.73-1.66-.71-4.01-1.53-7.06-2.44-4.42-1.36-8.03-2.73-10.82-4.09-2.79-1.36-5.19-3.38-7.21-6.04-2.02-2.66-3.02-6.14-3.02-10.43,0-6.36,2.32-11.36,6.91-14.96,4.61-3.6,10.62-5.41,18.03-5.41s13.61,1.81,18.23,5.41c4.61,3.6,7.08,8.62,7.41,15.06h-18.03c-.13-2.21-.94-3.95-2.43-5.21-1.49-1.27-3.42-1.9-5.75-1.9-2.02,0-3.65.54-4.88,1.61-1.23,1.08-1.86,2.62-1.86,4.63,0,2.21,1.03,3.93,3.12,5.16,2.09,1.23,5.34,2.57,9.75,4,4.42,1.49,8,2.92,10.76,4.29,2.76,1.36,5.16,3.35,7.18,5.94,2,2.59,3.02,5.94,3.02,10.03s-1,7.45-2.97,10.62c-1.99,3.19-4.86,5.71-8.64,7.6-3.76,1.88-8.21,2.82-13.35,2.82s-9.48-.81-13.45-2.44Z" style="fill: #1C1F3B;"></path>
        <path d="M596.51,61.16v13.35h-18.13v55.06h-16.67v-55.06h-18.13v-13.35h52.93Z" style="fill: #1C1F3B;"></path>
        <path d="M621.55,61.16v68.41h-16.67V61.16h16.67Z" style="fill: #1C1F3B;"></path>
        <path d="M635.2,77.18c2.92-5.29,7-9.42,12.23-12.37,5.22-2.96,11.15-4.43,17.78-4.43,8.11,0,15.08,2.14,20.86,6.43,5.78,4.29,9.64,10.14,11.59,17.55h-18.33c-1.36-2.86-3.3-5.03-5.8-6.53-2.5-1.49-5.34-2.24-8.52-2.24-5.14,0-9.29,1.78-12.48,5.35-3.19,3.58-4.78,8.35-4.78,14.33s1.59,10.76,4.78,14.33,7.34,5.36,12.48,5.36c3.19,0,6.03-.75,8.52-2.24,2.5-1.49,4.43-3.67,5.8-6.54h18.33c-1.95,7.41-5.81,13.24-11.59,17.5-5.78,4.25-12.74,6.38-20.86,6.38-6.63,0-12.56-1.48-17.78-4.43-5.24-2.96-9.31-7.06-12.23-12.32-2.92-5.26-4.38-11.27-4.38-18.03s1.46-12.78,4.38-18.08Z" style="fill: #1C1F3B;"></path>
        <path d="M743.22,125.77c-5.35-2.99-9.61-7.16-12.76-12.52-3.15-5.36-4.73-11.39-4.73-18.08s1.58-12.7,4.73-18.03c3.15-5.32,7.41-9.48,12.76-12.47,5.35-2.99,11.27-4.48,17.69-4.48s12.33,1.49,17.69,4.48c5.37,2.99,9.59,7.15,12.68,12.47,3.09,5.33,4.63,11.34,4.63,18.03s-1.56,12.72-4.68,18.08c-3.12,5.36-7.34,9.53-12.68,12.52-5.32,2.99-11.2,4.48-17.64,4.48s-12.33-1.49-17.69-4.48ZM774.01,109.59c3.28-3.64,4.93-8.45,4.93-14.43s-1.64-10.86-4.93-14.47c-3.27-3.6-7.64-5.41-13.1-5.41s-9.92,1.79-13.2,5.36c-3.28,3.57-4.93,8.42-4.93,14.52s1.64,10.87,4.93,14.48c3.28,3.6,7.69,5.41,13.2,5.41s9.84-1.82,13.1-5.46Z" style="fill: #1C1F3B;"></path>
        <path d="M849.68,65.44c5.39,2.87,9.57,6.87,12.53,12.04,2.96,5.16,4.43,11.13,4.43,17.88s-1.48,12.64-4.43,17.83c-2.96,5.2-7.16,9.23-12.58,12.09-5.42,2.86-11.71,4.29-18.85,4.29h-25.63V61.16h25.63c7.21,0,13.52,1.43,18.9,4.29ZM844.42,109.98c3.5-3.44,5.25-8.31,5.25-14.62s-1.76-11.21-5.25-14.71c-3.51-3.51-8.42-5.26-14.73-5.26h-7.88v39.76h7.88c6.31,0,11.22-1.72,14.73-5.16Z" style="fill: #1C1F3B;"></path>
        <path d="M934.66,61.16l-23.68,45.8v22.61h-16.65v-22.61l-23.68-45.8h18.9l13.25,28.65,13.15-28.65h18.7Z" style="fill: #1C1F3B;"></path>
        <path d="M952.69,127.81c-3.96-1.62-7.13-4.02-9.49-7.21-2.38-3.19-3.63-7.02-3.76-11.5h17.74c.26,2.53,1.13,4.47,2.64,5.8,1.49,1.33,3.43,2,5.85,2s4.42-.57,5.85-1.71c1.43-1.13,2.13-2.71,2.13-4.72,0-1.69-.56-3.09-1.71-4.2-1.13-1.1-2.53-2.01-4.19-2.73-1.66-.71-4.01-1.53-7.06-2.44-4.42-1.36-8.03-2.73-10.82-4.09-2.79-1.36-5.19-3.38-7.21-6.04-2.02-2.66-3.02-6.14-3.02-10.43,0-6.36,2.32-11.36,6.91-14.96,4.61-3.6,10.62-5.41,18.03-5.41s13.61,1.81,18.23,5.41c4.61,3.6,7.08,8.62,7.41,15.06h-18.03c-.13-2.21-.94-3.95-2.43-5.21-1.49-1.27-3.42-1.9-5.75-1.9-2.02,0-3.65.54-4.88,1.61-1.23,1.08-1.86,2.62-1.86,4.63,0,2.21,1.03,3.93,3.12,5.16,2.09,1.23,5.34,2.57,9.75,4,4.42,1.49,8,2.92,10.76,4.29,2.76,1.36,5.16,3.35,7.18,5.94,2,2.59,3.02,5.94,3.02,10.03s-1,7.45-2.97,10.62c-1.99,3.19-4.86,5.71-8.64,7.6-3.76,1.88-8.21,2.82-13.35,2.82s-9.48-.81-13.45-2.44Z" style="fill: #1C1F3B;"></path>
        <path d="M1012.62,127.81c-3.96-1.62-7.13-4.02-9.49-7.21-2.38-3.19-3.63-7.02-3.76-11.5h17.74c.26,2.53,1.13,4.47,2.64,5.8,1.49,1.33,3.43,2,5.85,2s4.42-.57,5.85-1.71c1.43-1.13,2.13-2.71,2.13-4.72,0-1.69-.56-3.09-1.71-4.2-1.13-1.1-2.53-2.01-4.19-2.73-1.66-.71-4.01-1.53-7.06-2.44-4.42-1.36-8.03-2.73-10.82-4.09-2.79-1.36-5.19-3.38-7.21-6.04-2.02-2.66-3.02-6.14-3.02-10.43,0-6.36,2.32-11.36,6.91-14.96,4.61-3.6,10.62-5.41,18.03-5.41s13.61,1.81,18.23,5.41c4.61,3.6,7.08,8.62,7.41,15.06h-18.03c-.13-2.21-.94-3.95-2.43-5.21-1.49-1.27-3.42-1.9-5.75-1.9-2.02,0-3.65.54-4.88,1.61-1.23,1.08-1.86,2.62-1.86,4.63,0,2.21,1.03,3.93,3.12,5.16s5.34,2.57,9.75,4c4.42,1.49,8,2.92,10.76,4.29,2.76,1.36,5.16,3.35,7.18,5.94,2,2.59,3.02,5.94,3.02,10.03s-1,7.45-2.97,10.62c-1.99,3.19-4.86,5.71-8.64,7.6-3.76,1.88-8.21,2.82-13.35,2.82s-9.48-.81-13.45-2.44Z" style="fill: #1C1F3B;"></path>
        <path d="M1077.92,74.51v13.84h22.32v12.87h-22.32v15.01h25.24v13.35h-41.91V61.16h41.91v13.35h-25.24Z" style="fill: #1C1F3B;"></path>
        <path d="M1172.63,61.16l-23.68,45.8v22.61h-16.65v-22.61l-23.68-45.8h18.9l13.25,28.65,13.15-28.65h18.7Z" style="fill: #1C1F3B;"></path>
        <g id="d" data-name="Groupe 1997">
          <path id="e" data-name="Tracé 2870" d="M308.24,177.69h86.73v30.53h-48.23v16.98h34.68v28.97h-34.68v46.3h-38.5v-122.78h0Z" style="fill: #1C1F3B;"></path>
          <path id="f" data-name="Tracé 2871" d="M486.71,281.92h-40.93l-6.07,18.56h-40.41l44.94-122.78h44.39l44.75,122.78h-40.58l-6.08-18.56h0ZM466.25,218.8l-11.1,34.17h22.2l-11.1-34.17h0Z" style="fill: #1C1F3B;"></path>
          <path id="g" data-name="Tracé 2872" d="M599.27,176.48c32.44,0,54.46,19.42,59.49,48.39h-40.58c-3.3-7.88-11.05-12.96-19.6-12.83-13,0-20.99,10.58-20.99,26.89s7.98,26.89,20.99,26.89c8.54.13,16.3-4.95,19.6-12.83h40.58c-5.03,28.96-27.05,48.39-59.49,48.39-37.63,0-60.7-25.83-60.7-62.44s23.06-62.44,60.7-62.44v-.02Z" style="fill: #1C1F3B;"></path>
          <path id="h" data-name="Tracé 2873" d="M665.7,177.69h103.36v30.53h-32.61v92.27h-38.5v-92.27h-32.25v-30.53Z" style="fill: #1C1F3B;"></path>
          <path id="i" data-name="Tracé 2874" d="M839.32,301.69c-34.23.73-62.57-26.42-63.3-60.64-.02-.83-.02-1.66,0-2.48,0-36.94,28.44-62.96,63.3-62.96s63.04,28.22,63.04,63.04-28.22,63.04-63.04,63.04h0ZM839.32,265.81c15.44,0,23.94-10.92,23.94-27.24s-8.49-27.4-23.94-27.4-24.11,10.75-24.11,27.4,8.33,27.24,24.11,27.24h0Z" style="fill: #1C1F3B;"></path>
          <path id="j" data-name="Tracé 2875" d="M973.4,177.69c30.86,0,46.66,17.69,46.66,40.24.32,16.52-10.6,31.17-26.53,35.55l26.71,47h-42.32l-23.06-44.05h-.17v44.05h-38.49v-122.77h57.23l-.02-.02ZM969.93,209.93h-15.26v20.81h15.26c7.28,0,11.1-3.12,11.1-10.41,0-6.25-3.81-10.41-11.1-10.41h0Z" style="fill: #1C1F3B;"></path>
          <rect id="k" data-name="Rectangle 812" x="1032.36" y="177.7" width="38.5" height="122.79" style="fill: #1C1F3B;"></rect>
          <path id="l" data-name="Tracé 2876" d="M1170.08,208.39h-43.36v15.09h38.16v28.97h-38.16v17.34h43.36v30.69h-81.86v-122.78h81.86v30.69h0Z" style="fill: #1C1F3B;"></path>
          <path id="m" data-name="Tracé 2877" d="M1232.69,301.69c-28.1,0-50.12-13-51.85-40.58h40.93c.71,9.02,5.55,10.58,9.36,10.58s7.46-1.73,7.46-6.07c-.17-16.64-58.1-10.58-57.41-52.55,0-24.63,20.81-37.46,47-37.46,29.66,0,48.74,14.22,49.77,39.72h-41.44c-.35-7.46-4.33-9.72-8.49-9.72-3.03-.07-5.55,2.33-5.62,5.37,0,.29,0,.6.05.89,0,15.44,57.06,12.83,57.06,50.64,0,22.55-17.17,39.19-46.83,39.19h0Z" style="fill: #1C1F3B;"></path>
        </g>
        <path id="n" data-name="Tracé 2887" d="M1361,277.13c0,13.42-10.87,24.3-24.29,24.3s-24.3-10.87-24.3-24.29,10.87-24.3,24.29-24.3h0c13.42,0,24.29,10.87,24.29,24.29h0Z" style="fill: #80C7C2;"></path>
      </g>
      <g>
        <path d="M22.47,297.05c-7.36-1.55-14.9-2.25-22.46-2.08v35.26h-.01v-35.27c7.57-.17,15.11.53,22.47,2.09Z" style="fill: #80C7C2;"></path>
        <path d="M26.18,297.9c1.47.36,2.92.77,4.37,1.2-1.45-.43-2.91-.84-4.37-1.2Z" style="fill: #80C7C2;"></path>
        <path d="M46.04,305.11c6.59,2.67,13.58,4.22,20.67,4.61-7.1-.37-14.09-1.93-20.67-4.61Z" style="fill: #80C7C2;"></path>
        <path d="M93.18,306.9c-5.08,1.59-10.34,2.54-15.66,2.82,5.32-.29,10.58-1.24,15.66-2.82Z" style="fill: #80C7C2;"></path>
        <rect x="0" y="174.31" width=".01" height="35.29" style="fill: #80C7C2;"></rect>
        <path d="M89.75,187.22c-5.74,1.44-11.68,2.09-17.64,1.92-10.12.29-20.16-1.79-29.33-6.08-5.36-2.44-10.92-4.38-16.6-5.81,5.68,1.42,11.23,3.35,16.6,5.78,9.16,4.31,19.21,6.39,29.34,6.1,5.96.17,11.89-.48,17.63-1.91Z" style="fill: #80C7C2;"></path>
        <path d="M37.96,241.35c-12.05-4.7-24.93-6.98-37.9-6.69v-.03c12.97-.3,25.85,2,37.9,6.72Z" style="fill: #80C7C2;"></path>
        <path d="M41.65,280.61c2.24.67,4.51,1.27,6.79,1.77-2.28-.5-4.54-1.09-6.79-1.77Z" style="fill: #80C7C2;"></path>
        <path d="M26.09,153.96c-8.27-3.31-17.15-4.9-26.09-4.64v-35.29h.01v35.25c8.94-.26,17.82,1.34,26.08,4.68Z" style="fill: #80C7C2;"></path>
        <path d="M97.23,161.41c-8.2,2.01-16.64,2.93-25.11,2.73-13.86.33-27.61-2.3-40.35-7.7,12.75,5.36,26.5,7.98,40.35,7.67,8.48.18,16.92-.73,25.11-2.7Z" style="fill: #80C7C2;"></path>
        <path d="M95.08,222.26c-7.52,1.67-15.22,2.43-22.96,2.24-14.75.33-29.38-2.68-42.78-8.79-9.18-4.29-19.22-6.37-29.33-6.08v-.03c10.13-.3,20.18,1.79,29.36,6.1,13.42,6.09,28.03,9.09,42.76,8.76,7.73.17,15.43-.57,22.95-2.2Z" style="fill: #80C7C2;"></path>
        <path d="M29.4,276c2.86,1.3,5.78,2.46,8.74,3.47-2.97-1-5.89-2.16-8.75-3.46-9.18-4.29-19.22-6.37-29.33-6.07v-.04c10.12-.29,20.17,1.8,29.34,6.1Z" style="fill: #80C7C2;"></path>
        <path d="M73.26,284.77c2.11.03,4.23-.01,6.33-.13-2.11.12-4.22.17-6.33.13Z" style="fill: #80C7C2;"></path>
        <path d="M82.32,284.46c1.68-.14,3.35-.32,5.02-.54-1.67.23-3.34.41-5.02.54Z" style="fill: #80C7C2;"></path>
        <rect x="70.99" y="38.46" width="37.22" height="0" style="fill: #80C7C2;"></rect>
        <rect x="70.99" width="74.38" height="38.46" style="fill: #80C7C2;"></rect>
        <path d="M216.32,128.84v35.27c-14.73.33-29.35-2.65-42.76-8.73-9.17-4.3-19.22-6.39-29.34-6.1-10.12-.29-20.18,1.8-29.34,6.1-4.83,2.18-9.81,3.96-14.9,5.32-.91.26-1.83.49-2.75.71-8.19,1.97-16.63,2.88-25.11,2.7-13.85.31-27.6-2.31-40.35-7.67-.81-.34-1.61-.69-2.4-1.05-1.08-.5-2.17-.98-3.28-1.43-8.26-3.34-17.14-4.94-26.08-4.68v-35.27c14.73-.33,29.35,2.65,42.77,8.72,9.16,4.31,19.21,6.4,29.34,6.1,10.12.3,20.17-1.79,29.33-6.1,13.43-6.06,28.04-9.03,42.77-8.72,14.73-.33,29.34,2.65,42.76,8.72h0c9.17,4.32,19.22,6.4,29.34,6.11Z" style="fill: #80C7C2;"></path>
        <path d="M216.34,309.83v35.27c-.36.01-.71.02-1.07.01h-1.94c-13.71-.12-27.26-3.1-39.76-8.78-9.17-4.31-19.21-6.4-29.33-6.1-10.13-.3-20.18,1.79-29.34,6.1-6.72,3.06-13.75,5.34-20.94,6.8-.21.04-.42.09-.63.12-.41.09-.83.18-1.24.25-5.56,1.02-11.22,1.57-16.9,1.61h-1.97c-.36.01-.72,0-1.09-.01-.35.01-.71.02-1.07.01h-1.94c-13.7-.12-27.25-3.1-39.75-8.78-9.18-4.31-19.23-6.4-29.36-6.1v-35.26c7.56-.17,15.1.53,22.46,2.08,1.24.25,2.47.54,3.71.85,1.46.36,2.92.77,4.37,1.2,4.16,1.26,8.25,2.79,12.23,4.59,1.07.51,2.16.98,3.26,1.42,6.58,2.68,13.57,4.24,20.67,4.61,1.79.1,3.6.13,5.4.07,1.81.06,3.61.03,5.41-.07,5.32-.28,10.58-1.23,15.66-2.82.56-.17,1.12-.35,1.68-.55.56-.18,1.12-.38,1.67-.59,1.66-.62,3.3-1.31,4.91-2.07.07-.03.14-.06.21-.09,13.37-6,27.91-8.95,42.57-8.64h.02c14.73-.33,29.34,2.67,42.76,8.77,9.17,4.3,19.22,6.39,29.34,6.1Z" style="fill: #80C7C2;"></path>
        <path d="M216.36,249.5v35.26c-14.74.33-29.34-2.66-42.76-8.76-9.16-4.3-19.22-6.39-29.34-6.1-10.12-.29-20.17,1.8-29.34,6.1-6.67,3.04-13.64,5.3-20.78,6.76-.29.07-.59.13-.89.18-.47.09-.94.18-1.4.26-.29.06-.57.11-.85.15-.44.08-.87.16-1.31.22-.78.13-1.56.25-2.35.35-1.67.22-3.34.4-5.02.54-.09,0-.17.02-.26.02-.82.06-1.64.12-2.47.16-2.1.12-4.22.16-6.33.13-.37.01-.73,0-1.1-.01-3.34.07-6.68-.03-9.99-.29-.87-.07-1.74-.15-2.61-.25-2.6-.27-5.19-.65-7.76-1.14-1.12-.21-2.24-.44-3.36-.7-2.28-.5-4.55-1.1-6.79-1.77-.83-.25-1.66-.51-2.49-.79-.34-.11-.68-.22-1.02-.35-2.96-1.01-5.88-2.17-8.74-3.47-9.17-4.3-19.22-6.39-29.34-6.1v-35.24c12.97-.29,25.85,1.99,37.9,6.69,1.62.64,3.24,1.33,4.83,2.05,2.15,1.01,4.34,1.9,6.58,2.65,7.29,2.49,15,3.66,22.75,3.44,10.12.3,20.17-1.8,29.33-6.1,13.42-6.09,28.04-9.09,42.77-8.76h0c14.75-.32,29.38,2.67,42.82,8.77,9.16,4.29,19.21,6.39,29.33,6.1Z" style="fill: #80C7C2;"></path>
        <path d="M216.34,189.16v35.3c-14.74.33-29.35-2.67-42.77-8.76-9.16-4.31-19.21-6.4-29.33-6.1-10.13-.3-20.18,1.79-29.34,6.1-4.6,2.09-9.36,3.79-14.21,5.15-.92.26-1.85.52-2.77.75-.4.1-.79.19-1.18.28-.55.14-1.11.26-1.66.38-7.52,1.63-15.22,2.37-22.95,2.2-14.73.33-29.34-2.67-42.76-8.76-9.18-4.31-19.23-6.4-29.36-6.1v-35.29c8.84-.2,17.64.79,26.17,2.94,5.68,1.43,11.24,3.37,16.6,5.81,9.17,4.29,19.21,6.37,29.33,6.08,5.96.17,11.9-.48,17.64-1.92,1.16-.29,2.3-.61,3.43-.97.56-.17,1.12-.35,1.68-.55,2.24-.77,4.44-1.66,6.59-2.67,13.43-6.06,28.04-9.03,42.77-8.72h.02c14.73-.34,29.34,2.65,42.76,8.75,9.17,4.31,19.22,6.4,29.34,6.1Z" style="fill: #80C7C2;"></path>
      </g>
    </g>
  </g>
</svg>